<svg class="svg-icon" style="width: 1em;height: 1em;vertical-align: middle;fill: currentColor;overflow: hidden;" viewBox="0 0 1024 1024" version="1.1" xmlns="http://www.w3.org/2000/svg"><path d="M128 839.338667h768a32 32 0 0 1 0 64H128a32 32 0 1 1 0-64zM544 487.338667v256a32 32 0 1 1-64 0v-256a32 32 0 1 1 64 0zM245.333333 487.338667v256a32 32 0 1 1-64 0v-256a32 32 0 1 1 64 0zM842.666667 487.338667v256a32 32 0 1 1-64 0v-256a32 32 0 0 1 64 0zM581.248 101.12l308.906667 148.266667c71.637333 34.346667 47.146667 141.952-32.298667 141.952H166.144c-79.445333 0-103.936-107.605333-32.298667-141.952l308.906667-148.309334a160 160 0 0 1 138.496 0z m-110.805333 57.685333l-308.906667 148.266667c-3.370667 1.621333-4.650667 3.456-5.290667 4.949333a11.434667 11.434667 0 0 0-0.512 7.04 11.434667 11.434667 0 0 0 3.498667 6.101334c1.237333 1.066667 3.2 2.176 6.912 2.176h691.712c3.712 0 5.674667-1.109333 6.912-2.133334a11.434667 11.434667 0 0 0 3.498667-6.144 11.434667 11.434667 0 0 0-0.512-7.04c-0.64-1.493333-1.92-3.328-5.290667-4.949333l-308.906667-148.266667a96 96 0 0 0-83.114666 0z" fill="#000000" /></svg>